<svg role="img" aria-hidden="true" xmlns="http://www.w3.org/2000/svg" viewBox="0 0 1392 752"><title>Staatsballett Berlin</title><path d="M1207.31 156.702C1207.31 209.895 1163.09 232.651 1101.24 232.651C1038.11 232.651 1000.94 201.882 1006.7 152.212H1068.23C1062.78 173.686 1076.88 188.752 1107.32 188.752C1132.32 188.752 1145.78 179.772 1145.78 165.673C1145.78 155.42 1138.73 149.012 1119.83 144.844L1094.51 139.073C1046.75 128.183 1030.42 109.917 1030.42 78.1897C1030.42 27.56 1071.44 8.71873e-05 1130.72 8.71873e-05C1186.8 8.71873e-05 1232.94 28.1965 1223.34 77.2306H1162.44C1167.25 55.7564 1152.19 43.8989 1127.19 43.8989C1108.93 43.8989 1091.94 51.5888 1091.94 67.2913C1091.94 77.867 1100.28 84.2753 1118.54 88.4428L1141.94 93.8921C1190.33 105.104 1207.31 124.015 1207.31 156.702ZM827.252 49.0254L838.464 4.15884H1038.75L1027.54 49.0254H957.676L913.131 228.483H852.562L897.107 49.0254H827.252ZM752.777 135.55L749.891 42.2946L700.543 135.55H752.777ZM798.28 4.15884L813.023 228.483H755.985L754.381 178.49H677.787L651.508 228.483H588.062L714.318 4.15884H798.28ZM524.136 135.55L521.251 42.2946L471.894 135.55H524.136ZM569.64 4.15884L584.383 228.483H527.336L525.732 178.49H449.147L422.868 228.483H359.413L485.678 4.15884H569.64ZM229.792 49.0254L241.013 4.15884H441.3L430.079 49.0254H360.224L315.68 228.483H255.111L299.655 49.0254H229.792ZM204.447 156.702C204.447 209.895 160.225 232.651 98.3746 232.651C35.2422 232.651 -1.92574 201.882 3.83735 152.212H65.3654C59.9162 173.686 74.0232 188.752 104.46 188.752C129.457 188.752 142.919 179.771 142.919 165.673C142.919 155.42 135.865 149.012 116.963 144.844L91.6437 139.073C43.8999 128.183 27.5523 109.917 27.5523 78.1896C27.5523 27.5599 68.5739 0 127.853 0C183.94 0 230.08 28.1964 220.472 77.2306H159.58C164.393 55.7564 149.327 43.8989 124.33 43.8989C106.065 43.8989 89.0804 51.5888 89.0804 67.2913C89.0804 77.867 97.4155 84.2753 115.681 88.4428L139.074 93.8921C187.463 105.104 204.447 124.015 204.447 156.702ZM1192.73 310.599H1261.57V490.056H1322.14V310.599H1392V265.741H1192.73H1191.71H992.447V310.599H1062.31V490.056H1122.88V310.599H1191.71H1192.73ZM980.625 490.056V445.199H869.103V397.124H968.453V352.902H869.103V310.599H980.625V265.741H808.543V490.056H980.625ZM689.75 265.741H629.181V490.056H791.655V445.199H689.75V265.741ZM510.389 265.741H449.82V490.056H612.293V445.199H510.389V265.741ZM321.384 303.232L347.662 397.124H294.783L321.384 303.232ZM433.542 490.056L363.042 265.741H279.081L208.581 490.056H268.191L282.289 440.072H359.842L373.941 490.056H433.542ZM78.5151 445.513V395.842H116.328C136.198 395.842 146.765 402.25 146.765 420.516C146.765 438.79 136.198 445.513 116.328 445.513H78.5151ZM115.683 310.285C134.271 310.285 143.566 316.693 143.566 332.718C143.566 348.735 134.271 355.143 115.683 355.143H78.5151V310.285H115.683ZM163.113 375.335C188.746 367.645 203.812 349.38 203.812 323.738C203.812 292.656 179.138 265.741 123.696 265.741H20.1867V490.056H126.904C172.407 490.056 207.012 467.946 207.012 425.651C207.012 397.769 191.955 380.785 163.113 375.335ZM1086.5 695.836L1064.71 527.276H975.949L920.184 751.592H979.471L1021.45 583.033L1043.24 751.592H1132.01L1187.77 527.276H1128.48L1086.5 695.836ZM878.909 751.592L934.674 527.276H874.105L818.349 751.592H878.909ZM762.75 527.276H702.18L646.424 751.592H800.885L812.098 706.734H718.206L762.75 527.276ZM513.054 625.013L526.193 571.82H556.639C582.908 571.82 592.848 577.583 592.848 593.286C592.848 613.156 577.145 625.013 544.459 625.013H513.054ZM654.053 583.678C654.053 544.897 628.097 527.276 570.414 527.276H476.836L421.08 751.592H481.649L501.833 669.557H553.753V707.048C553.753 730.44 556.316 744.547 563.361 751.592H625.212C617.199 741.661 613.677 728.2 613.677 704.485V681.415C613.677 659.304 603.101 648.083 577.782 644.883C616.24 643.602 654.053 622.127 654.053 583.678ZM387.853 751.592L399.065 706.734H287.544L299.401 658.659H399.065L409.963 614.437H310.3L320.875 572.134H432.397L443.609 527.276H271.519L215.762 751.592H387.853ZM69.2178 707.048L81.7118 657.377H112.48C134.913 657.377 145.167 662.826 145.167 678.852C145.167 695.836 133.309 707.048 103.831 707.048H69.2178ZM91.6511 616.678L102.863 571.82H134.913C154.461 571.82 163.432 576.947 163.432 591.368C163.432 608.029 148.375 616.678 121.774 616.678H91.6511ZM223.679 579.188C223.679 543.938 198.046 527.276 147.73 527.276H55.7563L0 751.592H105.113C171.445 751.592 205.413 723.073 205.413 681.415C205.413 657.063 188.752 641.038 158.942 637.83C201.246 632.067 223.679 606.425 223.679 579.188Z" style="fill:#d2222a"></path></svg>